# xmcd CD database file
#
# Track frame offsets:
#	150
#	16030
#	29080
#	49353
#	64091
#	81664
#	99289
#	118489
#	138214
#	153739
#	179014
#	196961
#	213836
#
# Disc length: 3020 seconds
#
# Revision: 0
# Processed by: cddbd v1.4PL0 Copyright (c) Steve Scherf et al.
# Submitted via: CDex 1.40Release
#
DISCID=bf0bca0d
DTITLE=Country Stars - You´re in my Dreams
DYEAR=1900
DGENRE=Country
TTITLE0=Love Get´s me Everytime
TTITLE1=Mivida Loca
TTITLE2=You´re in my Dreams
TTITLE3=Every little Thing
TTITLE4=Indianersommer
TTITLE5=Down at the Twist and Shout
TTITLE6=Who´s Cheatin who
TTITLE7=One Night at a time
TTITLE8=Rockin Years
TTITLE9=Dixiland Delight
TTITLE10=John Deer Tractor
TTITLE11=Never Again Again
TTITLE12=You´re my best friend
EXTD=ID3G: 2
EXTT0=
EXTT1=
EXTT2=
EXTT3=
EXTT4=
EXTT5=
EXTT6=
EXTT7=
EXTT8=
EXTT9=
EXTT10=
EXTT11=
EXTT12=
PLAYORDER=
